<svg xmlns="http://www.w3.org/2000/svg" xmlns:xlink="http://www.w3.org/1999/xlink" width="500" zoomAndPan="magnify" viewBox="0 0 375 374.999991" height="500" preserveAspectRatio="xMidYMid meet" version="1.0"><defs><g/></defs><rect x="-37.5" width="450" fill="#ffffff" y="-37.499999" height="449.999989" fill-opacity="1"/><rect x="-37.5" width="450" fill="#ffffff" y="-37.499999" height="449.999989" fill-opacity="1"/><rect x="-37.5" width="450" fill="#000000" y="-37.499999" height="449.999989" fill-opacity="1"/><g fill="#ffffff" fill-opacity="1"><g transform="translate(136.404169, 273.946612)"><g><path d="M 8.625 0 L 8.625 -5.3125 L 26.8125 -6.5 L 26.8125 -162.078125 L 8.625 -163.265625 L 8.625 -168.578125 L 124.984375 -168.578125 L 126.171875 -120.5 L 121.203125 -120.5 C 120.253906 -125.851562 119.25 -130.398438 118.1875 -134.140625 C 117.125 -137.878906 115.609375 -141.640625 113.640625 -145.421875 C 111.671875 -149.203125 109.367188 -152.210938 106.734375 -154.453125 C 104.097656 -156.703125 100.710938 -158.535156 96.578125 -159.953125 C 92.441406 -161.367188 87.65625 -162.078125 82.21875 -162.078125 C 75.519531 -162.078125 67.132812 -161.679688 57.0625 -160.890625 L 57.0625 -90.734375 C 59.425781 -90.492188 63.71875 -90.375 69.9375 -90.375 C 78.207031 -90.375 84.113281 -92.398438 87.65625 -96.453125 C 91.195312 -100.515625 92.96875 -107.898438 92.96875 -118.609375 L 99.46875 -118.609375 L 99.46875 -55.171875 L 92.96875 -55.171875 C 92.96875 -65.878906 91.175781 -73.335938 87.59375 -77.546875 C 84.007812 -81.765625 78.125 -83.875 69.9375 -83.875 C 63.875 -83.875 59.582031 -83.753906 57.0625 -83.515625 L 57.0625 -7.671875 C 67.132812 -6.890625 77.132812 -6.5 87.0625 -6.5 C 91.707031 -6.5 95.800781 -6.867188 99.34375 -7.609375 C 102.894531 -8.359375 105.96875 -9.597656 108.5625 -11.328125 C 111.164062 -13.066406 113.367188 -15.019531 115.171875 -17.1875 C 116.984375 -19.351562 118.578125 -22.128906 119.953125 -25.515625 C 121.335938 -28.898438 122.460938 -32.285156 123.328125 -35.671875 C 124.191406 -39.054688 125.097656 -43.234375 126.046875 -48.203125 L 131.125 -48.203125 L 129.828125 0 Z M 8.625 0 "/></g></g></g><g fill="#067bdb" fill-opacity="1"><g transform="translate(57.102264, 254.902669)"><g><path d="M -0.578125 0 L -0.578125 -4.375 L 11.1875 -5.34375 L 57.1875 -142.765625 L 61.5625 -142.765625 L 109.109375 -5.34375 L 121.953125 -4.375 L 121.953125 0 L 69.921875 0 L 69.921875 -4.375 L 83.046875 -5.34375 L 71.578125 -40.265625 L 28.015625 -40.265625 L 16.734375 -5.34375 L 29.859375 -4.375 L 29.859375 0 Z M 29.765625 -46.09375 L 69.4375 -46.875 L 49.984375 -106.59375 L 49.59375 -106.59375 Z M 29.765625 -46.09375 "/></g></g></g><path stroke-linecap="butt" transform="matrix(0.75, 0, 0, 0.75, 37.500002, 298.060058)" fill="none" stroke-linejoin="miter" d="M -0.00000271667 2.498048 L 400.000024 2.498048 " stroke="#ffffff" stroke-width="5" stroke-opacity="1" stroke-miterlimit="4"/><path stroke-linecap="butt" transform="matrix(0.75, 0, 0, 0.75, 37.500002, 97.896154)" fill="none" stroke-linejoin="miter" d="M -0.00000271667 2.497836 L 400.000024 2.497836 " stroke="#067bdb" stroke-width="5" stroke-opacity="1" stroke-miterlimit="4"/></svg>